# xmcd
#
# Track frame offsets: 
#        150
#        9213
#        24121
#        40712
#        56120
#        68907
#        87937
#        105476
#        119054
#        130709
#
# Disc length: 1904 seconds
#
# Revision: 0
# Processed by: cddbd v1.5.2PL0 Copyright (c) Steve Scherf et al.
# Submitted via: ExactAudioCopyFreeDBPlugin 1.0
#
DISCID=76076e0a
DTITLE=Lincoln Durham - Revelations Of A Mind Unraveling
DYEAR=2016
DGENRE=Blue
TTITLE0=Suffer My Name
TTITLE1=Bleed Until You Die
TTITLE2=Creeper 
TTITLE3=Bones
TTITLE4=Prophet Incarnate
TTITLE5=Rage And Fire And Brimstone
TTITLE6=Rusty Knife
TTITLE7=Gods Of Wood And Stone
TTITLE8=Noose
TTITLE9=Bide My Time
EXTD=
EXTT0=
EXTT1=
EXTT2=
EXTT3=
EXTT4=
EXTT5=
EXTT6=
EXTT7=
EXTT8=
EXTT9=
PLAYORDER=
